{"title":"Faith.Like.Potatoes.2006.720p.WEB-DL.DD5.1.H264-FGT","uid":12127257,"size":4011483578,"categoryP":"video","categoryS":"hd___movies","magnet":"?xt=urn:btih:618d3c68be4b8f224b3925652b00a55cbbc85d4f&amp;dn=Faith.Like.Potatoes.2006.720p.WEB-DL.DD5.1.H264-FGT&amp;tr=udp%3A%2F%2Ftracker.openbittorrent.com%3A80&amp;tr=udp%3A%2F%2Fopen.demonii.com%3A1337&amp;tr=udp%3A%2F%2Ftracker.coppersurfer.tk%3A6969&amp;tr=udp%3A%2F%2Fexodus.desync.com%3A6969","seeders":0,"leechers":0,"uploader":null,"files":2,"time":1436949986,"description":"Video\nID                                       : 1\nFormat                                   : AVC\nFormat/Info                              : Advanced Video Codec\nFormat profile                           : &lt;a class=&quot;__cf_email__&quot; href=&quot;/cdn-cgi/l/email-protection&quot; data-cfemail=&quot;5911303e3119156a7768&quot;&gt;[email&amp;#160;protected]&lt;/a&gt;&lt;script data-cfhash='f9e31' type=&quot;text/javascript&quot;&gt;\n/* &lt;![CDATA[ */!function(){try{var t=&quot;currentScript&quot;in document?document.currentScript:function(){for(var t=document.getElementsByTagName(&quot;script&quot;),e=t.length;e--;)if(t[e].getAttribute(&quot;data-cfhash&quot;))return t[e]}();if(t&amp;&amp;t.previousSibling){var e,r,n,i,c=t.previousSibling,a=c.getAttribute(&quot;data-cfemail&quot;);if(a){for(e=&quot;&quot;,r=parseInt(a.substr(0,2),16),n=2;a.length-n;n+=2)i=parseInt(a.substr(n,2),16)^r,e+=String.fromCharCode(i);e=document.createTextNode(e),c.parentNode.replaceChild(e,c)}t.parentNode.removeChild(t);}}catch(u){}}()/* ]]&gt; */&lt;/script&gt;\nFormat settings, CABAC                   : No\nFormat settings, ReFrames                : 2 frames\nFormat settings, GOP                     : N=1\nCodec ID                                 : V_MPEG4/ISO/AVC\nDuration                                 : 1h 56mn\nBit rate                                 : 4 124 Kbps\nWidth                                    : 1 280 pixels\nHeight                                   : 720 pixels\nDisplay aspect ratio                     : 16:9\nFrame rate mode                          : Constant\nFrame rate                               : 23.976 fps\nColor space                              : YUV\nChroma subsampling                       : 4:2:0\nBit depth                                : 8 bits\nScan type                                : Progressive\nBits/(Pixel*Frame)                       : 0.187\nStream size                              : 3.35 GiB (90%)\nTitle                                    : Faith.Like.Potatoes.2006.720p.WEB-DL.DD5.1.H264-FGT\nLanguage                                 : English\nDefault                                  : Yes\nForced                                   : No\nColor primaries                          : BT.709\nTransfer characteristics                 : BT.709\nMatrix coefficients                      : BT.709\nColor range                              : Limited\n\nAudio\nID                                       : 2\nFormat                                   : AC-3\nFormat/Info                              : Audio Coding 3\nMode extension                           : CM (complete main)\nFormat settings, Endianness              : Big\nCodec ID                                 : A_AC3\nDuration                                 : 1h 56mn\nBit rate mode                            : Constant\nBit rate                                 : 384 Kbps\nChannel(s)                               : 6 channels\nChannel positions                        : Front: L C R, Side: L R, LFE\nSampling rate                            : 48.0 KHz\nBit depth                                : 16 bits\nCompression mode                         : Lossy\nStream size                              : 319 MiB (8%)\nTitle                                    : Faith.Like.Potatoes.2006.720p.WEB-DL.DD5.1.H264-FGT\nLanguage                                 : English\nDefault                                  : Yes\nForced                                   : No\n\nText\nID                                       : 3\nFormat                                   : UTF-8\nCodec ID                                 : S_TEXT/UTF8\nCodec ID/Info                            : UTF-8 Plain Text\nTitle                                    : CC\nLanguage                                 : English\nDefault                                  : Yes\nForced                                   : No\n\nMenu\n00:00:00.000                             : en:Chapter 1\n00:05:20.000                             : en:Chapter 2\n00:09:15.000                             : en:Chapter 3\n00:11:52.000                             : en:Chapter 4\n00:15:03.000                             : en:Chapter 5\n00:18:07.000                             : en:Chapter 6\n00:22:28.000                             : en:Chapter 7\n00:25:08.000                             : en:Chapter 8\n00:27:38.000                             : en:Chapter 9\n00:32:07.000                             : en:Chapter 10\n00:35:12.000                             : en:Chapter 11\n00:38:01.000                             : en:Chapter 12\n00:42:34.000                             : en:Chapter 13\n00:46:37.000                             : en:Chapter 14\n00:52:44.000                             : en:Chapter 15\n00:56:13.000                             : en:Chapter 16\n00:58:48.000                             : en:Chapter 17\n01:03:27.000                             : en:Chapter 18\n01:07:54.000                             : en:Chapter 19\n01:13:07.000                             : en:Chapter 20\n01:17:50.000                             : en:Chapter 21\n01:24:16.000                             : en:Chapter 22\n01:28:29.000                             : en:Chapter 23\n01:33:08.000                             : en:Chapter 24\n01:38:10.000                             : en:Chapter 25\n01:43:44.000                             : en:Chapter 26\n01:46:32.000                             : en:Chapter 27\n01:48:50.000                             : en:Chapter 28","torrent":{"xt":"urn:btih:618d3c68be4b8f224b3925652b00a55cbbc85d4f","amp;dn":"Faith.Like.Potatoes.2006.720p.WEB-DL.DD5.1.H264-FGT","amp;tr":["udp%3A%2F%2Ftracker.openbittorrent.com%3A80","udp%3A%2F%2Fopen.demonii.com%3A1337","udp%3A%2F%2Ftracker.coppersurfer.tk%3A6969","udp%3A%2F%2Fexodus.desync.com%3A6969"],"infoHash":"618d3c68be4b8f224b3925652b00a55cbbc85d4f","infoHashBuffer":{"type":"Buffer","data":[97,141,60,104,190,75,143,34,75,57,37,101,43,0,165,92,187,200,93,79]},"announce":[],"urlList":[]}}